<?xml version="1.0" encoding="UTF-8"?>
<svg id="_레이어_1" data-name="레이어 1" xmlns="http://www.w3.org/2000/svg" viewBox="0 0 454.21 55.85">
  <defs>
    <style>
      .cls-1 {
        fill: #6e4797;
        stroke-width: 0px;
      }
    </style>
  </defs>
  <path class="cls-1" d="m426.65,55.61c-15.19,0-27.56-12.36-27.56-27.56S411.46.49,426.65.49s27.56,12.36,27.56,27.56-12.36,27.56-27.56,27.56m0-47.62c-11.06,0-20.06,9-20.06,20.06s9,20.06,20.06,20.06,20.06-9,20.06-20.06-9-20.06-20.06-20.06"/>
  <path class="cls-1" d="m426.61,50.41v-22.69l-15.66-14.99c-3.32,4-5.36,9.27-5.36,15.04,0,12.49,9.45,22.65,21.06,22.65s21.06-10.16,21.06-22.65c0,0,0-.02,0-.03-.01,12.52-9.46,22.67-21.1,22.67"/>
  <path class="cls-1" d="m338.28,33.23c0,5.81.02,11.62,0,17.42,0,2.99-1.39,4.4-4.23,4.44-2.93.03-4.4-1.41-4.4-4.49-.02-10.63,0-21.25-.02-31.88,0-1.04-.01-2.11-.22-3.13-1.3-6.39-4.97-7.97-9.57-7.82-5.27.17-8.62,3.93-8.67,9.44-.08,9.08-.03,18.16-.03,27.25,0,2.16.04,4.33-.02,6.49-.06,2.6-1.27,3.96-3.56,4.14-2.76.22-4.3-.89-4.76-3.51-.17-.97-.21-1.97-.21-2.95-.02-10.01,0-20.02-.02-30.03,0-1.35.08-2.72-.27-4.06-1.16-4.44-4.97-7.22-9.36-6.82-5.04.46-8.47,3.8-8.54,8.77-.13,9.14-.05,18.29-.07,27.43,0,2.29.07,4.58-.05,6.86-.16,2.86-1.64,4.28-4.29,4.32-2.79.04-4.41-1.43-4.54-4.26-.08-1.85-.03-3.71-.03-5.56,0-9.14-.03-18.29.01-27.43.03-5.13,1.48-9.69,5.37-13.35,6.62-6.22,18.84-5.88,24.88.91,1.05,1.19,1.49,1.08,2.5.03,7.83-8.19,21.77-6.92,27.68,2.48,1.58,2.51,2.39,5.29,2.41,8.26.03,5.68,0,11.37,0,17.05h0Z"/>
  <path class="cls-1" d="m27.85,26.62c4.72,2.26,7.66,5.8,8.33,10.81,1,7.42-2.8,13.64-9.59,15.86-2.07.67-4.19,1.07-6.39,1.06-4.27-.02-8.55.04-12.82-.01-4.34-.05-6.49-1.92-7.16-6.18-.15-.97-.21-1.97-.21-2.95C0,33.71,0,22.22,0,10.73c0-.68,0-1.36.06-2.04C.6,3.61,2.8,1.55,7.94,1.61c4.76.05,9.55-.47,14.28.35,9.49,1.65,12.94,10.02,11.03,17.59-.71,2.81-1.43,3.69-5.4,7.07m-18.88,12.22c0,2.1.03,4.19-.01,6.29-.02,1.14.38,1.72,1.6,1.69,2.6-.05,5.2.09,7.79-.07,2.73-.17,5.49-.56,7.38-2.88,2.07-2.53,2.29-5.45,1.12-8.37-1.24-3.12-3.98-4.31-7.11-4.49-3.02-.17-6.06-.03-9.08-.09-1.31-.02-1.73.59-1.7,1.81.05,2.03.01,4.07.01,6.11m0-22.74c0,1.91,0,3.82,0,5.73,0,.77.05,1.61,1.07,1.61,3.32-.02,6.69.51,9.96-.41,3.44-.96,5.09-3.56,4.85-7.33-.22-3.41-2.29-5.63-5.73-6.26-2.89-.53-5.79-.25-8.69-.33-1.16-.03-1.48.59-1.47,1.62.03,1.79,0,3.58,0,5.36"/>
  <path class="cls-1" d="m82.88,33.96c.24-4.76-.47-10.77.36-16.73C84.62,7.28,92.68.34,102.77.06c6.26-.17,11.94,1.11,16.6,5.52,4.51,4.27,6.16,9.76,6.22,15.76.1,9.63.04,19.27.02,28.91,0,3.39-1.7,5-4.9,4.83-2.66-.14-4.01-1.61-4.02-4.53-.02-7.35.03-14.7-.03-22.05-.03-3.58.31-7.17-.37-10.72-.82-4.27-2.85-7.74-7.09-9.25-4.61-1.64-9.23-1.47-13.13,1.87-3.17,2.71-4.18,6.51-4.21,10.52-.07,9.82-.02,19.64-.04,29.46,0,3.16-1.62,4.77-4.65,4.7-2.71-.06-4.25-1.61-4.27-4.52-.05-5.13-.01-10.25-.01-16.6"/>
  <path class="cls-1" d="m347.83,34.64c0-5-.06-10.01.01-15.01.15-10.85,8.66-19.25,19.52-19.56,5.97-.17,11.45.9,16.08,4.91,4.43,3.83,6.67,8.81,6.78,14.52.21,10.43.09,20.88.06,31.32,0,2.72-1.45,4.15-4.08,4.27-2.81.12-4.39-1.12-4.74-3.81-.11-.79-.09-1.6-.09-2.4-.01-9.45,0-18.9-.03-28.35,0-3.11-.8-6.01-2.67-8.52-2.87-3.85-6.96-4.73-11.43-4.26-4.49.47-7.71,2.8-9.41,7.06-1.02,2.57-1.31,5.27-1.31,7.99-.02,9.27,0,18.53-.01,27.8,0,3.15-1.44,4.54-4.54,4.5-2.7-.03-4.11-1.4-4.13-4.14-.04-5.43-.01-10.87-.01-16.31h.02Z"/>
  <path class="cls-1" d="m189.71,55.84c-6.75.03-12.28-2.47-16.38-7.91-1.01-1.35-1.46-2.85-.89-4.53.94-2.81,4.12-3.65,6.26-1.59,1.07,1.02,1.91,2.27,2.98,3.3,3.13,2.99,6.85,3.85,10.99,2.63,5.59-1.63,7.04-8.05,2.85-12.48-1.69-1.78-3.86-2.87-6.06-3.89-3.26-1.51-6.54-2.97-9.55-4.95-5.96-3.91-7.43-9.08-6.06-15.22,1.37-6.12,6.86-10.53,13.2-11.04,5.1-.41,9.87.48,14.03,3.69.94.72,1.81,1.51,2.45,2.51.95,1.48,1.25,3.02,0,4.45-1.21,1.41-2.79,1.75-4.55,1.14-.96-.33-1.69-1.01-2.46-1.63-2.58-2.09-5.42-3.09-8.8-2.44-2.55.5-4.29,1.82-5.12,4.27-.87,2.58-.3,4.91,1.54,6.86,2.34,2.5,5.46,3.79,8.5,5.18,3.39,1.56,6.59,3.42,9.37,5.94,4.51,4.08,5.69,9.2,4.2,14.86-1.56,5.92-5.9,9.05-11.68,10.42-1.58.37-3.19.45-4.81.41"/>
  <path class="cls-1" d="m239.34,55.53c-15.2,0-27.56-12.36-27.56-27.56S224.14.41,239.34.41s27.56,12.36,27.56,27.56-12.36,27.56-27.56,27.56m0-47.62c-11.06,0-20.06,9-20.06,20.06s9,20.06,20.06,20.06,20.06-9,20.06-20.06-9-20.06-20.06-20.06"/>
  <path class="cls-1" d="m239.34,55.53c-15.2,0-27.56-12.36-27.56-27.56S224.14.41,239.34.41s27.56,12.36,27.56,27.56-12.36,27.56-27.56,27.56m0-47.62c-11.06,0-20.06,9-20.06,20.06s9,20.06,20.06,20.06,20.06-9,20.06-20.06-9-20.06-20.06-20.06"/>
  <path class="cls-1" d="m52.71,32.71h18.81c2.48,0,4.49-2.01,4.49-4.49s-2.01-4.49-4.49-4.49h-18.8c-.56,0-1.01-.46-1.01-1.02v-.5c0-6.81,5.54-12.35,12.35-12.35h7.46c2.48,0,4.49-2.01,4.49-4.49s-2.01-4.49-4.49-4.49h-7.46c-11.76,0-21.32,9.56-21.32,21.32v11.39c0,11.76,9.56,21.32,21.32,21.32h7.46c2.48,0,4.49-2.01,4.49-4.49s-2.01-4.49-4.49-4.49h-7.46c-6.78,0-12.3-5.49-12.34-12.26.01-.55.45-.98,1-.99"/>
  <path class="cls-1" d="m144.4,32.75h18.81c2.48,0,4.49-2.01,4.49-4.49s-2.01-4.49-4.49-4.49h-18.8c-.56,0-1.01-.46-1.01-1.02v-.49c0-6.81,5.54-12.35,12.35-12.35h7.46c2.48,0,4.49-2.01,4.49-4.49s-2.01-4.49-4.49-4.49h-7.46c-11.76,0-21.32,9.56-21.32,21.32v11.39c0,11.76,9.56,21.32,21.32,21.32h7.46c2.48,0,4.49-2.01,4.49-4.49s-2.01-4.49-4.49-4.49h-7.46c-6.78,0-12.3-5.49-12.34-12.26.01-.55.45-.98,1-.99"/>
  <path class="cls-1" d="m239.34,7.91c-3.56,0-6.91.94-9.81,2.58-.01.01-.03.02-.04.03-1.3,2.81-2.03,5.94-2.03,9.24,0,12.19,9.88,22.06,22.06,22.06,1.65,0,3.24-.2,4.79-.55,3.15-3.54,5.09-8.2,5.09-13.31,0-11.06-9-20.06-20.06-20.06"/>
</svg>