<svg width="280" height="80" viewBox="0 0 280 80" fill="none" xmlns="http://www.w3.org/2000/svg">
<rect opacity="0.1" width="280" height="80" rx="8" fill="#6E4797" style="fill:#6E4797;fill:color(display-p3 0.4314 0.2784 0.5922);fill-opacity:1;"/>
<path d="M46.3236 54.969L43.1946 65H41.9766L39.4356 57.349C39.4122 57.2743 39.3889 57.195 39.3656 57.111C39.3469 57.027 39.3259 56.9383 39.3026 56.845C39.2792 56.9383 39.2559 57.027 39.2326 57.111C39.2092 57.195 39.1859 57.2743 39.1626 57.349L36.6076 65H35.3896L32.2606 54.969H33.3876C33.5089 54.969 33.6092 54.9993 33.6886 55.06C33.7726 55.1207 33.8262 55.1977 33.8496 55.291L35.9216 62.263C35.9542 62.389 35.9846 62.5243 36.0126 62.669C36.0452 62.8137 36.0756 62.9677 36.1036 63.131C36.1362 62.9677 36.1689 62.8137 36.2016 62.669C36.2389 62.5197 36.2786 62.3843 36.3206 62.263L38.6796 55.291C38.7076 55.2117 38.7612 55.1393 38.8406 55.074C38.9246 55.004 39.0249 54.969 39.1416 54.969H39.5336C39.6549 54.969 39.7529 54.9993 39.8276 55.06C39.9022 55.1207 39.9582 55.1977 39.9956 55.291L42.3476 62.263C42.3896 62.3843 42.4269 62.515 42.4596 62.655C42.4969 62.795 42.5319 62.942 42.5646 63.096C42.5879 62.942 42.6136 62.795 42.6416 62.655C42.6696 62.515 42.6999 62.3843 42.7326 62.263L44.8116 55.291C44.8349 55.207 44.8862 55.1323 44.9656 55.067C45.0496 55.0017 45.1499 54.969 45.2666 54.969H46.3236ZM50.8758 60.681C50.8758 60.3917 50.8338 60.128 50.7498 59.89C50.6704 59.6473 50.5514 59.4397 50.3928 59.267C50.2388 59.0897 50.0498 58.9543 49.8258 58.861C49.6018 58.763 49.3474 58.714 49.0628 58.714C48.4654 58.714 47.9918 58.889 47.6418 59.239C47.2964 59.5843 47.0818 60.065 46.9978 60.681H50.8758ZM51.8838 64.006C51.7298 64.1927 51.5454 64.356 51.3308 64.496C51.1161 64.6313 50.8851 64.7433 50.6378 64.832C50.3951 64.9207 50.1431 64.986 49.8818 65.028C49.6204 65.0747 49.3614 65.098 49.1048 65.098C48.6148 65.098 48.1621 65.0163 47.7468 64.853C47.3361 64.685 46.9791 64.4423 46.6758 64.125C46.3771 63.803 46.1438 63.4063 45.9758 62.935C45.8078 62.4637 45.7238 61.9223 45.7238 61.311C45.7238 60.8163 45.7984 60.3543 45.9478 59.925C46.1018 59.4957 46.3211 59.1247 46.6058 58.812C46.8904 58.4947 47.2381 58.2473 47.6488 58.07C48.0594 57.888 48.5214 57.797 49.0348 57.797C49.4594 57.797 49.8514 57.8693 50.2108 58.014C50.5748 58.154 50.8874 58.3593 51.1488 58.63C51.4148 58.896 51.6224 59.2273 51.7718 59.624C51.9211 60.016 51.9958 60.464 51.9958 60.968C51.9958 61.164 51.9748 61.2947 51.9328 61.36C51.8908 61.4253 51.8114 61.458 51.6948 61.458H46.9558C46.9698 61.906 47.0304 62.2957 47.1378 62.627C47.2498 62.9583 47.4038 63.236 47.5998 63.46C47.7958 63.6793 48.0291 63.845 48.2998 63.957C48.5704 64.0643 48.8738 64.118 49.2098 64.118C49.5224 64.118 49.7908 64.083 50.0148 64.013C50.2434 63.9383 50.4394 63.859 50.6028 63.775C50.7661 63.691 50.9014 63.614 51.0088 63.544C51.1208 63.4693 51.2164 63.432 51.2958 63.432C51.3984 63.432 51.4778 63.4717 51.5338 63.551L51.8838 64.006ZM54.2143 54.689V65H52.9683V54.689H54.2143ZM56.9229 54.689V65H55.6769V54.689H56.9229Z" fill="#535353" style="fill:#535353;fill:color(display-p3 0.3255 0.3255 0.3255);fill-opacity:1;"/>
<path d="M63.5249 57.964L63.1409 57.028C65.0849 56.884 66.4889 56.2 66.7049 55.348H63.5609V54.4H71.5769V55.348H68.4209C68.6369 56.2 70.0409 56.884 71.9969 57.028L71.6009 57.964C69.6689 57.808 68.1449 57.112 67.5689 56.068C66.9929 57.112 65.4689 57.808 63.5249 57.964ZM67.5569 64.144C68.8649 64.144 69.5609 63.952 69.5609 63.544C69.5609 63.136 68.8649 62.944 67.5569 62.944C66.2489 62.944 65.5529 63.136 65.5529 63.544C65.5529 63.952 66.2489 64.144 67.5569 64.144ZM67.5569 62.116C69.6449 62.116 70.8329 62.596 70.8329 63.544C70.8329 64.492 69.6449 64.972 67.5569 64.972C65.4569 64.972 64.2689 64.492 64.2689 63.544C64.2689 62.596 65.4569 62.116 67.5569 62.116ZM68.1809 59.836V60.736H71.5649V61.684H63.5609V60.736H66.9329V59.836H68.1809ZM68.1689 58.468H72.4889V59.452H62.6609V58.468H66.9329V57.316H68.1689V58.468ZM78.408 55.42C76.812 55.42 75.816 55.864 75.816 56.62C75.816 57.388 76.812 57.832 78.408 57.832C79.992 57.832 80.988 57.388 80.988 56.62C80.988 55.864 79.992 55.42 78.408 55.42ZM78.408 58.828C76.068 58.828 74.544 58 74.544 56.62C74.544 55.252 76.068 54.424 78.408 54.424C80.748 54.424 82.272 55.252 82.272 56.62C82.272 58 80.748 58.828 78.408 58.828ZM75.984 61.564V63.712H82.212V64.72H74.736V61.564H75.984ZM73.5 59.704H83.304V60.712H73.5V59.704Z" fill="#535353" style="fill:#535353;fill:color(display-p3 0.3255 0.3255 0.3255);fill-opacity:1;"/>
<path d="M176.898 56.537C176.856 56.607 176.809 56.6607 176.758 56.698C176.711 56.7307 176.653 56.747 176.583 56.747C176.504 56.747 176.41 56.7073 176.303 56.628C176.196 56.5487 176.06 56.4623 175.897 56.369C175.738 56.271 175.545 56.1823 175.316 56.103C175.092 56.0237 174.819 55.984 174.497 55.984C174.194 55.984 173.925 56.026 173.692 56.11C173.463 56.1893 173.27 56.299 173.111 56.439C172.957 56.579 172.84 56.7447 172.761 56.936C172.682 57.1227 172.642 57.3257 172.642 57.545C172.642 57.825 172.71 58.0583 172.845 58.245C172.985 58.427 173.167 58.5833 173.391 58.714C173.62 58.8447 173.876 58.959 174.161 59.057C174.45 59.1503 174.744 59.2483 175.043 59.351C175.346 59.4537 175.64 59.5703 175.925 59.701C176.214 59.827 176.471 59.988 176.695 60.184C176.924 60.38 177.106 60.6203 177.241 60.905C177.381 61.1897 177.451 61.5397 177.451 61.955C177.451 62.3937 177.376 62.8067 177.227 63.194C177.078 63.5767 176.858 63.9103 176.569 64.195C176.284 64.4797 175.932 64.7037 175.512 64.867C175.097 65.0303 174.623 65.112 174.091 65.112C173.438 65.112 172.845 64.9953 172.313 64.762C171.781 64.524 171.326 64.2043 170.948 63.803L171.34 63.159C171.377 63.1077 171.422 63.0657 171.473 63.033C171.529 62.9957 171.59 62.977 171.655 62.977C171.716 62.977 171.783 63.0027 171.858 63.054C171.937 63.1007 172.026 63.1613 172.124 63.236C172.222 63.3107 172.334 63.3923 172.46 63.481C172.586 63.5697 172.728 63.6513 172.887 63.726C173.05 63.8007 173.235 63.8637 173.44 63.915C173.645 63.9617 173.876 63.985 174.133 63.985C174.455 63.985 174.742 63.9407 174.994 63.852C175.246 63.7633 175.458 63.6397 175.631 63.481C175.808 63.3177 175.944 63.124 176.037 62.9C176.13 62.676 176.177 62.4263 176.177 62.151C176.177 61.8477 176.107 61.6003 175.967 61.409C175.832 61.213 175.652 61.0497 175.428 60.919C175.204 60.7883 174.947 60.6787 174.658 60.59C174.369 60.4967 174.075 60.4033 173.776 60.31C173.477 60.212 173.183 60.1 172.894 59.974C172.605 59.848 172.348 59.6847 172.124 59.484C171.9 59.2833 171.718 59.0337 171.578 58.735C171.443 58.4317 171.375 58.0583 171.375 57.615C171.375 57.2603 171.443 56.9173 171.578 56.586C171.718 56.2547 171.919 55.9607 172.18 55.704C172.446 55.4473 172.77 55.242 173.153 55.088C173.54 54.934 173.984 54.857 174.483 54.857C175.043 54.857 175.552 54.9457 176.009 55.123C176.471 55.3003 176.877 55.557 177.227 55.893L176.898 56.537ZM179.64 54.689V65H178.394V54.689H179.64ZM185.806 60.681C185.806 60.3917 185.764 60.128 185.68 59.89C185.601 59.6473 185.482 59.4397 185.323 59.267C185.169 59.0897 184.98 58.9543 184.756 58.861C184.532 58.763 184.278 58.714 183.993 58.714C183.396 58.714 182.922 58.889 182.572 59.239C182.227 59.5843 182.012 60.065 181.928 60.681H185.806ZM186.814 64.006C186.66 64.1927 186.476 64.356 186.261 64.496C186.047 64.6313 185.816 64.7433 185.568 64.832C185.326 64.9207 185.074 64.986 184.812 65.028C184.551 65.0747 184.292 65.098 184.035 65.098C183.545 65.098 183.093 65.0163 182.677 64.853C182.267 64.685 181.91 64.4423 181.606 64.125C181.308 63.803 181.074 63.4063 180.906 62.935C180.738 62.4637 180.654 61.9223 180.654 61.311C180.654 60.8163 180.729 60.3543 180.878 59.925C181.032 59.4957 181.252 59.1247 181.536 58.812C181.821 58.4947 182.169 58.2473 182.579 58.07C182.99 57.888 183.452 57.797 183.965 57.797C184.39 57.797 184.782 57.8693 185.141 58.014C185.505 58.154 185.818 58.3593 186.079 58.63C186.345 58.896 186.553 59.2273 186.702 59.624C186.852 60.016 186.926 60.464 186.926 60.968C186.926 61.164 186.905 61.2947 186.863 61.36C186.821 61.4253 186.742 61.458 186.625 61.458H181.886C181.9 61.906 181.961 62.2957 182.068 62.627C182.18 62.9583 182.334 63.236 182.53 63.46C182.726 63.6793 182.96 63.845 183.23 63.957C183.501 64.0643 183.804 64.118 184.14 64.118C184.453 64.118 184.721 64.083 184.945 64.013C185.174 63.9383 185.37 63.859 185.533 63.775C185.697 63.691 185.832 63.614 185.939 63.544C186.051 63.4693 186.147 63.432 186.226 63.432C186.329 63.432 186.408 63.4717 186.464 63.551L186.814 64.006ZM192.603 60.681C192.603 60.3917 192.561 60.128 192.477 59.89C192.397 59.6473 192.278 59.4397 192.12 59.267C191.966 59.0897 191.777 58.9543 191.553 58.861C191.329 58.763 191.074 58.714 190.79 58.714C190.192 58.714 189.719 58.889 189.369 59.239C189.023 59.5843 188.809 60.065 188.725 60.681H192.603ZM193.611 64.006C193.457 64.1927 193.272 64.356 193.058 64.496C192.843 64.6313 192.612 64.7433 192.365 64.832C192.122 64.9207 191.87 64.986 191.609 65.028C191.347 65.0747 191.088 65.098 190.832 65.098C190.342 65.098 189.889 65.0163 189.474 64.853C189.063 64.685 188.706 64.4423 188.403 64.125C188.104 63.803 187.871 63.4063 187.703 62.935C187.535 62.4637 187.451 61.9223 187.451 61.311C187.451 60.8163 187.525 60.3543 187.675 59.925C187.829 59.4957 188.048 59.1247 188.333 58.812C188.617 58.4947 188.965 58.2473 189.376 58.07C189.786 57.888 190.248 57.797 190.762 57.797C191.186 57.797 191.578 57.8693 191.938 58.014C192.302 58.154 192.614 58.3593 192.876 58.63C193.142 58.896 193.349 59.2273 193.499 59.624C193.648 60.016 193.723 60.464 193.723 60.968C193.723 61.164 193.702 61.2947 193.66 61.36C193.618 61.4253 193.538 61.458 193.422 61.458H188.683C188.697 61.906 188.757 62.2957 188.865 62.627C188.977 62.9583 189.131 63.236 189.327 63.46C189.523 63.6793 189.756 63.845 190.027 63.957C190.297 64.0643 190.601 64.118 190.937 64.118C191.249 64.118 191.518 64.083 191.742 64.013C191.97 63.9383 192.166 63.859 192.33 63.775C192.493 63.691 192.628 63.614 192.736 63.544C192.848 63.4693 192.943 63.432 193.023 63.432C193.125 63.432 193.205 63.4717 193.261 63.551L193.611 64.006ZM195.906 63.292C196.135 63.6 196.385 63.817 196.655 63.943C196.926 64.069 197.229 64.132 197.565 64.132C198.228 64.132 198.737 63.8963 199.091 63.425C199.446 62.9537 199.623 62.2817 199.623 61.409C199.623 60.947 199.581 60.5503 199.497 60.219C199.418 59.8877 199.301 59.617 199.147 59.407C198.993 59.1923 198.804 59.036 198.58 58.938C198.356 58.84 198.102 58.791 197.817 58.791C197.411 58.791 197.054 58.8843 196.746 59.071C196.443 59.2577 196.163 59.5213 195.906 59.862V63.292ZM195.843 59.008C196.142 58.6393 196.487 58.343 196.879 58.119C197.271 57.895 197.719 57.783 198.223 57.783C198.634 57.783 199.005 57.8623 199.336 58.021C199.668 58.175 199.95 58.406 200.183 58.714C200.417 59.0173 200.596 59.3953 200.722 59.848C200.848 60.3007 200.911 60.821 200.911 61.409C200.911 61.9317 200.841 62.4193 200.701 62.872C200.561 63.32 200.358 63.7097 200.092 64.041C199.831 64.3677 199.509 64.6267 199.126 64.818C198.748 65.0047 198.321 65.098 197.845 65.098C197.411 65.098 197.038 65.0257 196.725 64.881C196.417 64.7317 196.144 64.5263 195.906 64.265V67.401H194.653V57.909H195.402C195.58 57.909 195.689 57.9953 195.731 58.168L195.843 59.008Z" fill="#535353" style="fill:#535353;fill:color(display-p3 0.3255 0.3255 0.3255);fill-opacity:1;"/>
<path d="M216.045 59.084L215.565 60.08C213.765 59.792 212.289 58.88 211.581 57.632C210.885 58.892 209.385 59.792 207.585 60.08L207.105 59.084C209.313 58.772 210.921 57.44 210.921 56.012V55.436H212.229V56.012C212.229 57.416 213.861 58.772 216.045 59.084ZM216.465 61.1V62.108H212.157V65.936H210.921V62.108H206.673V61.1H216.465ZM221.796 60.188V56.972H219.192V60.188H221.796ZM225.252 57.908H222.996V59.228H225.252V57.908ZM222.996 60.224V61.172H217.98V55.988H222.996V56.9H225.252V55.088H226.488V62.996H225.252V60.224H222.996ZM220.68 64.712H226.74V65.72H219.432V62.276H220.68V64.712Z" fill="#535353" style="fill:#535353;fill:color(display-p3 0.3255 0.3255 0.3255);fill-opacity:1;"/>
<path d="M33.8133 30.439C35.8154 31.3977 37.0625 32.8992 37.3467 35.0244C37.7709 38.1718 36.159 40.8101 33.2788 41.7518C32.4008 42.036 31.5015 42.2057 30.5684 42.2014C28.7571 42.1929 26.9416 42.2184 25.1304 42.1972C23.2895 42.176 22.3775 41.3828 22.0933 39.5758C22.0297 39.1643 22.0042 38.7401 22.0042 38.3245C22 33.4464 22 28.5727 22 23.6989C22 23.4104 22 23.122 22.0255 22.8336C22.2545 20.6787 23.1877 19.8049 25.368 19.8304C27.387 19.8516 29.4188 19.631 31.4252 19.9789C35.4506 20.6787 36.914 24.2291 36.1038 27.4401C35.8027 28.632 35.4973 29.0053 33.8133 30.439ZM25.8049 35.6225C25.8049 36.5132 25.8176 37.3998 25.8006 38.2905C25.7921 38.7741 25.9618 39.0201 26.4793 39.0074C27.5822 38.9862 28.685 39.0456 29.7836 38.9777C30.9416 38.9056 32.1124 38.7401 32.914 37.7561C33.7921 36.6829 33.8854 35.4443 33.3891 34.2057C32.8631 32.8823 31.7009 32.3775 30.3732 32.3012C29.0922 32.2291 27.8027 32.2884 26.5217 32.263C25.966 32.2545 25.7879 32.5132 25.8006 33.0307C25.8218 33.8918 25.8049 34.7571 25.8049 35.6225ZM25.8049 25.9767C25.8049 26.7869 25.8049 27.5971 25.8049 28.4072C25.8049 28.7338 25.8261 29.0901 26.2587 29.0901C27.667 29.0817 29.0965 29.3065 30.4835 28.9162C31.9427 28.509 32.6426 27.4062 32.5408 25.807C32.4475 24.3606 31.5694 23.4189 30.1102 23.1517C28.8844 22.9269 27.6543 23.0456 26.4242 23.0117C25.9321 22.999 25.7964 23.262 25.8006 23.6989C25.8133 24.4581 25.8006 25.2174 25.8006 25.9725" fill="#6E4797" style="fill:#6E4797;fill:color(display-p3 0.4314 0.2784 0.5922);fill-opacity:1;"/>
<path d="M57.1557 33.5523C57.2575 31.5332 56.9563 28.9839 57.3084 26.4558C57.8937 22.2353 61.3126 19.2915 65.5925 19.1727C68.2479 19.1006 70.6572 19.6435 72.6338 21.5142C74.5469 23.3254 75.2468 25.6541 75.2722 28.1992C75.3146 32.284 75.2892 36.373 75.2807 40.4621C75.2807 41.9001 74.5596 42.583 73.2022 42.5109C72.0739 42.4515 71.5013 41.8279 71.4971 40.5893C71.4886 37.4717 71.5098 34.354 71.4843 31.2363C71.4716 29.7177 71.6158 28.1949 71.3274 26.6891C70.9796 24.8779 70.1185 23.406 68.32 22.7655C66.3645 22.0698 64.4048 22.1419 62.7505 23.5587C61.4059 24.7082 60.9775 26.3201 60.9648 28.021C60.9351 32.1864 60.9563 36.3518 60.9478 40.5172C60.9478 41.8576 60.2606 42.5406 58.9754 42.5109C57.8259 42.4854 57.1726 41.8279 57.1642 40.5936C57.1429 38.4176 57.1599 36.2458 57.1599 33.5523" fill="#6E4797" style="fill:#6E4797;fill:color(display-p3 0.4314 0.2784 0.5922);fill-opacity:1;"/>
<path d="M44.3579 33.022H52.3367C53.3886 33.022 54.2412 32.1694 54.2412 31.1175C54.2412 30.0655 53.3886 29.2129 52.3367 29.2129H44.3622C44.1246 29.2129 43.9338 29.0178 43.9338 28.7803V28.5682C43.9338 25.6795 46.2837 23.3296 49.1723 23.3296H52.3367C53.3886 23.3296 54.2412 22.477 54.2412 21.4251C54.2412 20.3731 53.3886 19.5205 52.3367 19.5205H49.1723C44.184 19.5205 40.1289 23.5756 40.1289 28.5639V33.3953C40.1289 38.3836 44.184 42.4387 49.1723 42.4387H52.3367C53.3886 42.4387 54.2412 41.5861 54.2412 40.5342C54.2412 39.4822 53.3886 38.6296 52.3367 38.6296H49.1723C46.2964 38.6296 43.955 36.3009 43.938 33.4292C43.9422 33.1959 44.1289 33.0135 44.3622 33.0093" fill="#6E4797" style="fill:#6E4797;fill:color(display-p3 0.4314 0.2784 0.5922);fill-opacity:1;"/>
<path d="M83.2515 33.0388H91.2302C92.2822 33.0388 93.1348 32.1862 93.1348 31.1342C93.1348 30.0823 92.2822 29.2297 91.2302 29.2297H83.2557C83.0182 29.2297 82.8273 29.0346 82.8273 28.797V28.5892C82.8273 25.7005 85.1773 23.3506 88.0659 23.3506H91.2302C92.2822 23.3506 93.1348 22.498 93.1348 21.4461C93.1348 20.3941 92.2822 19.5415 91.2302 19.5415H88.0659C83.0776 19.5415 79.0225 23.5966 79.0225 28.5849V33.4163C79.0225 38.4046 83.0776 42.4597 88.0659 42.4597H91.2302C92.2822 42.4597 93.1348 41.6071 93.1348 40.5552C93.1348 39.5032 92.2822 38.6506 91.2302 38.6506H88.0659C85.19 38.6506 82.8485 36.3219 82.8316 33.4502C82.8358 33.2169 83.0224 33.0345 83.2557 33.0303" fill="#6E4797" style="fill:#6E4797;fill:color(display-p3 0.4314 0.2784 0.5922);fill-opacity:1;"/>
<path fill-rule="evenodd" clip-rule="evenodd" d="M117.135 23.8413H115.135V29.8413H109.135V31.8413H115.135V37.8413H117.135V31.8413H123.135V29.8413H117.135V23.8413Z" fill="#868686" style="fill:#868686;fill:color(display-p3 0.5255 0.5255 0.5255);fill-opacity:1;"/>
<path d="M246.935 42.5847C240.492 42.5847 235.245 37.3419 235.245 30.8944C235.245 24.4469 240.492 19.2041 246.935 19.2041C253.379 19.2041 258.626 24.4469 258.626 30.8944C258.626 37.3419 253.383 42.5847 246.935 42.5847ZM246.935 22.3854C242.244 22.3854 238.426 26.203 238.426 30.8944C238.426 35.5858 242.244 39.4034 246.935 39.4034C251.627 39.4034 255.444 35.5858 255.444 30.8944C255.444 26.203 251.627 22.3854 246.935 22.3854Z" fill="#6E4797" style="fill:#6E4797;fill:color(display-p3 0.4314 0.2784 0.5922);fill-opacity:1;"/>
<path d="M246.919 40.3789V30.7544L240.277 24.396C238.868 26.0927 238.003 28.3281 238.003 30.7756C238.003 36.0736 242.011 40.3832 246.936 40.3832C251.861 40.3832 255.869 36.0736 255.869 30.7756C255.869 30.7756 255.869 30.7671 255.869 30.7629C255.865 36.0736 251.857 40.3789 246.919 40.3789Z" fill="#6E4797" style="fill:#6E4797;fill:color(display-p3 0.4314 0.2784 0.5922);fill-opacity:1;"/>
<path d="M209.451 33.0915C209.451 35.556 209.46 38.0205 209.451 40.4807C209.451 41.749 208.862 42.3471 207.657 42.364C206.414 42.3768 205.791 41.7659 205.791 40.4595C205.782 35.9505 205.791 31.4457 205.782 26.9368C205.782 26.4956 205.778 26.0417 205.689 25.6091C205.138 22.8986 203.581 22.2284 201.63 22.292C199.394 22.3641 197.973 23.959 197.952 26.2962C197.918 30.1478 197.939 33.9993 197.939 37.855C197.939 38.7713 197.956 39.6917 197.931 40.6079C197.905 41.7108 197.392 42.2877 196.421 42.364C195.25 42.4573 194.597 41.9865 194.402 40.8752C194.33 40.4637 194.313 40.0395 194.313 39.6239C194.304 35.3779 194.313 31.1319 194.304 26.8859C194.304 26.3132 194.338 25.7321 194.19 25.1637C193.698 23.2804 192.081 22.1011 190.219 22.2708C188.082 22.4659 186.627 23.8827 186.597 25.9908C186.542 29.8678 186.576 33.749 186.567 37.626C186.567 38.5973 186.597 39.5687 186.546 40.5358C186.478 41.749 185.85 42.3513 184.726 42.3683C183.543 42.3852 182.856 41.7617 182.801 40.5613C182.767 39.7766 182.788 38.9876 182.788 38.2029C182.788 34.3259 182.775 30.4447 182.792 26.5677C182.805 24.3917 183.42 22.4575 185.07 20.905C187.878 18.2666 193.061 18.4108 195.623 21.291C196.069 21.7957 196.255 21.7491 196.684 21.3037C200.005 17.8297 205.918 18.3684 208.425 22.3557C209.095 23.4203 209.439 24.5995 209.447 25.8593C209.46 28.2687 209.447 30.6822 209.447 33.0915H209.451Z" fill="#6E4797" style="fill:#6E4797;fill:color(display-p3 0.4314 0.2784 0.5922);fill-opacity:1;"/>
<path d="M213.502 33.6895C213.502 31.5686 213.477 29.4435 213.507 27.3226C213.57 22.7203 217.18 19.1572 221.786 19.0258C224.319 18.9536 226.643 19.4075 228.607 21.1085C230.486 22.733 231.436 24.8454 231.483 27.2675C231.572 31.6916 231.521 36.1243 231.509 40.5527C231.509 41.7064 230.894 42.313 229.778 42.3639C228.586 42.4148 227.916 41.8888 227.767 40.7478C227.721 40.4127 227.729 40.0691 227.729 39.7298C227.725 35.7213 227.729 31.7129 227.716 27.7044C227.716 26.3852 227.377 25.1551 226.584 24.0904C225.367 22.4573 223.632 22.0841 221.736 22.2834C219.831 22.4828 218.465 23.4711 217.744 25.2781C217.311 26.3682 217.188 27.5135 217.188 28.6673C217.18 32.5994 217.188 36.5272 217.184 40.4594C217.184 41.7955 216.573 42.3851 215.258 42.3681C214.113 42.3554 213.515 41.7743 213.507 40.6121C213.49 38.3088 213.502 36.0013 213.502 33.6938H213.511L213.502 33.6895Z" fill="#6E4797" style="fill:#6E4797;fill:color(display-p3 0.4314 0.2784 0.5922);fill-opacity:1;"/>
<path d="M146.432 42.6821C143.568 42.6948 141.223 41.6344 139.484 39.3269C139.055 38.7542 138.864 38.118 139.106 37.4054C139.505 36.2134 140.854 35.8571 141.761 36.7309C142.215 37.1636 142.572 37.6938 143.025 38.1307C144.353 39.399 145.931 39.7638 147.687 39.2463C150.058 38.5549 150.673 35.8317 148.896 33.9526C148.179 33.1975 147.259 32.7352 146.326 32.3025C144.943 31.662 143.551 31.0427 142.275 30.2029C139.747 28.5443 139.123 26.3513 139.704 23.7469C140.285 21.1509 142.614 19.2803 145.303 19.064C147.467 18.8901 149.49 19.2676 151.254 20.6292C151.653 20.9346 152.022 21.2697 152.294 21.6939C152.697 22.3217 152.824 22.9749 152.294 23.5815C151.78 24.1796 151.11 24.3238 150.364 24.065C149.956 23.9251 149.647 23.6366 149.32 23.3736C148.226 22.4871 147.021 22.0629 145.587 22.3386C144.506 22.5507 143.768 23.1106 143.416 24.1499C143.047 25.2442 143.288 26.2326 144.069 27.0597C145.061 28.1201 146.385 28.6673 147.674 29.2569C149.112 29.9187 150.47 30.7076 151.649 31.7765C153.562 33.5072 154.062 35.679 153.43 38.0798C152.769 40.5909 150.928 41.9186 148.476 42.4997C147.806 42.6567 147.123 42.6906 146.436 42.6736" fill="#6E4797" style="fill:#6E4797;fill:color(display-p3 0.4314 0.2784 0.5922);fill-opacity:1;"/>
<path d="M167.483 42.5505C161.036 42.5505 155.793 37.3077 155.793 30.8602C155.793 24.4127 161.036 19.1699 167.483 19.1699C173.931 19.1699 179.174 24.4127 179.174 30.8602C179.174 37.3077 173.931 42.5505 167.483 42.5505ZM167.483 22.3512C162.792 22.3512 158.974 26.1688 158.974 30.8602C158.974 35.5516 162.792 39.3692 167.483 39.3692C172.175 39.3692 175.992 35.5516 175.992 30.8602C175.992 26.1688 172.175 22.3512 167.483 22.3512Z" fill="#6E4797" style="fill:#6E4797;fill:color(display-p3 0.4314 0.2784 0.5922);fill-opacity:1;"/>
<path d="M167.483 42.5505C161.036 42.5505 155.793 37.3077 155.793 30.8602C155.793 24.4127 161.036 19.1699 167.483 19.1699C173.931 19.1699 179.174 24.4127 179.174 30.8602C179.174 37.3077 173.931 42.5505 167.483 42.5505ZM167.483 22.3512C162.792 22.3512 158.974 26.1688 158.974 30.8602C158.974 35.5516 162.792 39.3692 167.483 39.3692C172.175 39.3692 175.992 35.5516 175.992 30.8602C175.992 26.1688 172.175 22.3512 167.483 22.3512Z" fill="#6E4797" style="fill:#6E4797;fill:color(display-p3 0.4314 0.2784 0.5922);fill-opacity:1;"/>
<path d="M167.484 22.3514C165.973 22.3514 164.552 22.7501 163.322 23.4458C163.318 23.45 163.31 23.4543 163.305 23.4585C162.754 24.6504 162.444 25.9781 162.444 27.3779C162.444 32.5486 166.635 36.7352 171.802 36.7352C172.502 36.7352 173.176 36.6504 173.833 36.5019C175.17 35.0003 175.993 33.0237 175.993 30.8561C175.993 26.1648 172.175 22.3472 167.484 22.3472" fill="#6E4797" style="fill:#6E4797;fill:color(display-p3 0.4314 0.2784 0.5922);fill-opacity:1;"/>
</svg>
