<?xml version="1.0" encoding="UTF-8"?>
<svg id="_π_ÃæÓ_1" data-name="∑π¿ÃæÓ_1" xmlns="http://www.w3.org/2000/svg" viewBox="0 0 483.36 115.28">
  <defs>
    <style>
      .cls-1 {
        fill: #95b8dc;
      }

      .cls-1, .cls-2, .cls-3 {
        stroke-width: 0px;
      }

      .cls-2 {
        fill: #a9c84a;
      }

      .cls-3 {
        fill: #aeca4d;
      }
    </style>
  </defs>
  <g>
    <path class="cls-3" d="m288.53,76.58c-1.95-.01-3.26-.06-4.98-1.11-2.14-1.31-3.71-3.68-3.71-6.23v-20.11c0-.41.33-.74.74-.74h4.3c3.66,0,6.63-2.97,6.63-6.63v-3.69c0-.74-.6-1.34-1.34-1.34h-9.6c-.41,0-.74-.33-.74-.74v-10.57c0-.75-.61-1.36-1.36-1.36h-4.53c-3.65,0-6.61,2.96-6.61,6.61v39.51c0,5.11,2.38,10.28,6.23,13.64,2.23,1.95,5.02,3.12,7.92,3.6,1.54.26,4.15.33,7.41.33,3.7,0,6.72-2.99,6.72-6.7v-3.12c0-.76-.61-1.37-1.37-1.37-1.77.01-4.61.03-5.72.02Z"/>
    <path class="cls-1" d="m446.67,76.58c-1.95-.01-3.26-.06-4.98-1.11-2.14-1.31-3.71-3.68-3.71-6.23v-20.11c0-.41.33-.74.74-.74h4.3c3.66,0,6.63-2.97,6.63-6.63v-3.69c0-.74-.6-1.34-1.34-1.34h-9.6c-.41,0-.74-.33-.74-.74v-10.57c0-.75-.61-1.36-1.36-1.36h-4.53c-3.65,0-6.61,2.96-6.61,6.61v39.51c0,5.11,2.38,10.28,6.23,13.64,2.23,1.95,5.02,3.12,7.92,3.6,1.54.26,4.15.33,7.41.33,3.7,0,6.72-2.99,6.72-6.7v-3.12c0-.76-.61-1.37-1.37-1.37-1.77.01-4.61.03-5.72.02Z"/>
    <path class="cls-3" d="m189.13,37.69c-6.63-3.1-14.59-3.1-21.21,0-7.79,3.64-13.21,11.12-13.29,19.76v28.93c0,.75.61,1.36,1.35,1.36h4.51c3.66,0,6.63-2.97,6.63-6.63v-23.64c0-.13.04-.26.05-.39.32-5.56,5.33-10.02,11.34-10.08,0,0,.1,0,.11,0,6,.07,10.92,4.52,11.24,10.07,0,.13.05.25.05.39v28.91c0,.75.61,1.36,1.36,1.36h4.53c3.65,0,6.61-2.96,6.61-6.61v-23.68c-.08-8.64-5.5-16.12-13.29-19.76Z"/>
    <path class="cls-3" d="m224.18,85.42c6.57,3.07,14.58,3.11,21.21,0,7.79-3.64,13.21-11.12,13.29-19.76v-28.93c0-.75-.61-1.36-1.35-1.36h-4.51c-3.66,0-6.63,2.97-6.63,6.63v23.64c0,.13-.04.26-.05.39-.32,5.56-5.33,10.02-11.34,10.08,0,0-.1,0-.11,0-6-.07-10.92-4.52-11.24-10.07,0-.13-.05-.25-.05-.39v-28.91c0-.75-.61-1.36-1.36-1.36h-4.53c-3.65,0-6.61,2.96-6.61,6.61v23.68c.08,8.64,5.5,16.12,13.29,19.76Z"/>
    <g>
      <path class="cls-1" d="m407.79,24.01c-2.32-.12-4.58.93-5.92,2.84-1.12,1.59-1.29,3.37-1.28,5.25,0,2.42-.04,4.84-.05,7.27,0,.65.79.97,1.25.5.97-.99,2.23-1.59,3.58-1.87,1.03-.21,2.08-.29,3.1-.5,3.19-.65,5.8-3.31,5.8-6.66,0-3.66-2.88-6.65-6.5-6.84Z"/>
      <path class="cls-1" d="m412.29,42.5h-4.51c-3.66,0-6.63,2.97-6.63,6.63v37.26c0,.75.61,1.36,1.36,1.36h4.51c3.66,0,6.63-2.97,6.63-6.63v-37.26c0-.75-.61-1.35-1.36-1.35Z"/>
    </g>
    <path class="cls-3" d="m389.36,61.57c0-12.15-8.33-22.37-19.64-25.36-2.17-.57-4.54-.89-6.79-.89-9.58,0-17.98,5.04-22.65,12.57-.01.02-.03.04-.04.06-.02.03-.04.06-.06.1-3.12,5.11-4.38,11.58-3.48,17.5,1.96,12.55,12.97,22.19,26.22,22.19,5.28,0,10.34-1.53,14.62-4.36,0,0,0,.05.01.05v2.96c0,.75.61,1.36,1.36,1.36h3.81c3.66,0,6.63-2.97,6.63-6.63,0,0,0-.07.01-.07v-19.47Zm-26.43,14.5c-8.12,0-14.72-6.52-14.72-14.54s6.6-14.54,14.72-14.54,14.62,6.52,14.62,14.54-6.56,14.54-14.62,14.54Z"/>
    <path class="cls-3" d="m333.72,36.73c0-.76-.62-1.38-1.38-1.38,0,0-.01,0-.02,0h0c-.49.01-.98.03-1.47.06-.1,0-.2.02-.3.02-2.85.17-5.74.63-8.52,1.45-1.49.44-2.95.98-4.35,1.65-4.24,2.21-7.82,5.52-10.31,9.55-.01.02-.03.04-.04.06-.02.03-.04.07-.06.1-2.4,3.95-3.78,8.57-3.78,13.52v24.64c0,.75.61,1.36,1.36,1.36h4.51c3.66,0,6.63-2.97,6.63-6.63v-19.58c0-4.41,2.18-8.46,5.67-11.11,1.89-1.44,4.15-2.35,6.49-2.87.16-.04.32-.06.48-.09,2.92-.68,5.09-3.29,5.09-6.41v-4.31h0s0,0,0-.01Z"/>
  </g>
  <g>
    <path class="cls-2" d="m121.45,47.04c-4.15,0-7.51,3.36-7.51,7.51v11.03c0,7.31-5.83,11.4-13,11.4s-13-5.95-13-13.25v-13.71c0-15.12-12.18-27.42-27.16-27.42s-27.16,12.3-27.16,27.42v35.32c0,.84.68,1.53,1.53,1.53h5.17c4.13,0,7.47-3.35,7.47-7.47v-29.38c0-7.31,5.83-13.25,13-13.25s13,5.95,13,13.25v13.71c0,15.12,12.19,27.42,27.16,27.42s27.16-10.45,27.16-25.57v-16.98c0-.86-.69-1.55-1.55-1.55h-5.11Z"/>
    <path class="cls-1" d="m121.41,25.76c-2.76-.14-5.44,1.1-7.03,3.38-1.33,1.89-1.53,4-1.52,6.24,0,2.88-.05,5.76-.06,8.64,0,.78.94,1.15,1.49.6,1.16-1.18,2.66-1.89,4.26-2.22,1.22-.25,2.47-.35,3.69-.6,3.79-.78,6.9-3.93,6.9-7.92,0-4.36-3.42-7.9-7.72-8.12Z"/>
  </g>
</svg>