<?xml version="1.0" encoding="UTF-8"?>
<svg id="_π_ÃæÓ_1" data-name="∑π¿ÃæÓ_1" xmlns="http://www.w3.org/2000/svg" viewBox="0 0 162.89 115.28">
  <defs>
    <style>
      .cls-1 {
        fill: #95b8dc;
      }

      .cls-1, .cls-2 {
        stroke-width: 0px;
      }

      .cls-2 {
        fill: #a9c84a;
      }
    </style>
  </defs>
  <path class="cls-2" d="m125.31,48.46c-4.51,0-8.17,3.66-8.17,8.17v10.91c0,7.96-6.35,12.41-14.15,12.41s-14.15-6.47-14.15-14.43v-14.92c0-16.46-13.26-29.85-29.57-29.85s-29.57,13.39-29.57,29.85v38.45c0,.92.75,1.67,1.67,1.67h5.62c4.49,0,8.13-3.64,8.13-8.13v-31.98c0-7.96,6.35-14.43,14.15-14.43s14.15,6.47,14.15,14.43v14.92c0,16.46,13.26,29.85,29.57,29.85s29.57-11.37,29.57-27.83v-17.4c0-.93-.76-1.69-1.69-1.69h-5.56Z"/>
  <path class="cls-1" d="m125.26,25.29c-3.01-.16-5.92,1.2-7.66,3.68-1.44,2.06-1.66,4.36-1.66,6.8,0,3.13-.06,6.27-.07,9.4,0,.85,1.03,1.26,1.62.65,1.26-1.28,2.89-2.06,4.64-2.41,1.33-.27,2.69-.38,4.02-.65,4.13-.84,7.51-4.28,7.51-8.62,0-4.74-3.72-8.6-8.41-8.84Z"/>
</svg>